<?xml version="1.0" encoding="UTF-8" standalone="no"?>
<!-- Created with Inkscape (http://www.inkscape.org/) -->

<svg
   width="67.999001mm"
   height="14.17399mm"
   viewBox="0 0 67.999001 14.17399"
   version="1.1"
   id="svg1"
   xml:space="preserve"
   inkscape:export-filename="logo.svg"
   inkscape:export-xdpi="96"
   inkscape:export-ydpi="96"
   xmlns:inkscape="http://www.inkscape.org/namespaces/inkscape"
   xmlns:sodipodi="http://sodipodi.sourceforge.net/DTD/sodipodi-0.dtd"
   xmlns="http://www.w3.org/2000/svg"
   xmlns:svg="http://www.w3.org/2000/svg"><sodipodi:namedview
     id="namedview1"
     pagecolor="#ffffff"
     bordercolor="#000000"
     borderopacity="0.25"
     inkscape:showpageshadow="2"
     inkscape:pageopacity="0.0"
     inkscape:pagecheckerboard="0"
     inkscape:deskcolor="#d1d1d1"
     inkscape:document-units="mm" /><defs
     id="defs1" /><g
     inkscape:groupmode="layer"
     id="layer2"
     inkscape:label="Logo"
     transform="translate(-71.789888,-137.15504)"><g
       id="g14"
       transform="matrix(4.3796693,0,0,3.8222469,-164.35067,-288.41473)"
       inkscape:export-filename=".\g14.svg"
       inkscape:export-xdpi="96"
       inkscape:export-ydpi="96"><path
         style="color:#000000;-inkscape-font-specification:'Cascadia Code, @wght=463';fill:#800000;fill-opacity:1;-inkscape-stroke:none"
         d="m 54.310551,113.45959 v -0.41341 h 0.481624 q 0.326595,0 0.494027,-0.1633 0.169498,-0.16537 0.169498,-0.47956 0,-0.27905 -0.169498,-0.42375 -0.167432,-0.14469 -0.494027,-0.14469 h -0.473356 v -0.41341 h 0.473356 q 0.551904,0 0.839225,0.24805 0.287321,0.24804 0.287321,0.7276 0,0.51883 -0.287321,0.79168 -0.287321,0.27079 -0.839225,0.27079 z m -0.388607,0.8971 v -2.93522 h 0.438216 v 2.93522 z m 3.396175,0.0413 q -1.089339,0 -1.089339,-1.48828 0,-1.52962 1.089339,-1.52962 1.089339,0 1.089339,1.52962 0,1.48828 -1.089339,1.48828 z m 0,-0.40721 q 0.630452,0 0.630452,-1.08107 0,-1.12241 -0.630452,-1.12241 -0.630453,0 -0.630453,1.12241 0,1.08107 0.630453,1.08107 z m 1.932698,-0.74207 v -0.41341 h 0.605648 q 0.235644,0 0.365869,-0.1261 0.132292,-0.12815 0.132292,-0.3576 0,-0.24804 -0.132292,-0.3824 -0.130225,-0.13436 -0.365869,-0.13436 h -0.59738 l -0.04961,-0.41341 h 0.646989 q 0.460954,0 0.711068,0.23151 0.250113,0.23151 0.250113,0.65732 0,0.44649 -0.250113,0.69247 -0.250114,0.24598 -0.711068,0.24598 z m -0.409277,1.10794 v -2.93522 h 0.438216 v 2.93522 z m 1.558561,0 -0.638721,-1.38079 h 0.47749 l 0.686263,1.38079 z m 1.659846,0 v -2.93522 h 0.438217 v 2.93522 z m -0.861962,-2.52181 v -0.41341 h 2.162141 v 0.41341 z"
         id="path7" /><path
         style="color:#000000;-inkscape-font-specification:'Cascadia Code, @wght=463';fill:#800000;fill-opacity:1;-inkscape-stroke:none"
         d="m 54.310551,113.45959 v -0.41341 h 0.481624 c 0.21773,0 0.382406,-0.0544 0.494027,-0.1633 0.112999,-0.11025 0.169498,-0.2701 0.169498,-0.47956 0,-0.18603 -0.0565,-0.32728 -0.169498,-0.42375 -0.111621,-0.0965 -0.276297,-0.14469 -0.494027,-0.14469 h -0.473356 v -0.41341 h 0.473356 c 0.367936,0 0.647678,0.0827 0.839225,0.24805 0.191547,0.16536 0.287321,0.40789 0.287321,0.7276 0,0.34589 -0.09577,0.60978 -0.287321,0.79168 -0.191547,0.18053 -0.471289,0.27079 -0.839225,0.27079 z m -0.388607,0.8971 v -2.93522 h 0.438216 v 2.93522 z m 3.396175,0.0413 c -0.726225,0 -1.089339,-0.49609 -1.089339,-1.48828 0,-1.01975 0.363114,-1.52962 1.089339,-1.52962 0.726225,0 1.089339,0.50987 1.089339,1.52962 0,0.99219 -0.363114,1.48828 -1.089339,1.48828 z m 0,-0.40721 c 0.420301,0 0.630452,-0.36036 0.630452,-1.08107 0,-0.74827 -0.210151,-1.12241 -0.630452,-1.12241 -0.420302,0 -0.630453,0.37414 -0.630453,1.12241 0,0.72071 0.210151,1.08107 0.630453,1.08107 z m 1.932698,-0.74207 v -0.41341 h 0.605648 c 0.157096,0 0.279052,-0.042 0.365869,-0.1261 0.0882,-0.0854 0.132292,-0.20463 0.132292,-0.3576 0,-0.16536 -0.0441,-0.29283 -0.132292,-0.3824 -0.08682,-0.0896 -0.208773,-0.13436 -0.365869,-0.13436 h -0.59738 l -0.04961,-0.41341 h 0.646989 c 0.307302,0 0.544326,0.0772 0.711068,0.23151 0.166742,0.15434 0.250113,0.37345 0.250113,0.65732 0,0.29766 -0.08337,0.52848 -0.250113,0.69247 -0.166742,0.16399 -0.403766,0.24598 -0.711068,0.24598 z m -0.409277,1.10794 v -2.93522 h 0.438216 v 2.93522 z m 1.558561,0 -0.638721,-1.38079 h 0.47749 l 0.686263,1.38079 z m 1.659846,0 v -2.93522 h 0.438217 v 2.93522 z m -0.861962,-2.52181 v -0.41341 h 2.162141 v 0.41341 z"
         id="path8" /><path
         style="color:#000000;-inkscape-font-specification:'Cascadia Code, @wght=463';fill:#800000;fill-opacity:1;-inkscape-stroke:none"
         d="m 62.856127,115.0485 0.775875,-2.81828 h 0.560144 l 0.775876,2.81828 h -0.423893 l -0.615023,-2.41143 h -0.03406 l -0.615023,2.41143 z m 0.365229,-0.65694 v -0.39893 h 1.362513 v 0.39893 z m 2.460093,-0.40687 v -0.39694 h 0.554467 q 0.215731,0 0.33495,-0.12106 0.121113,-0.12306 0.121113,-0.34336 0,-0.23817 -0.121113,-0.36717 -0.119219,-0.12901 -0.33495,-0.12901 h -0.546898 l -0.04542,-0.39693 h 0.592315 q 0.422,0 0.650977,0.22228 0.228978,0.22229 0.228978,0.63113 0,0.42871 -0.228978,0.66488 -0.228977,0.23618 -0.650977,0.23618 z m -0.374691,1.06381 v -2.81828 h 0.401184 v 2.81828 z m 1.426853,0 -0.584745,-1.32578 h 0.437139 l 0.62827,1.32578 z m 1.51958,0 v -2.81828 h 0.401185 v 2.81828 z m -0.789122,-2.42135 v -0.39693 h 1.979428 v 0.39693 z"
         id="path9" /><path
         style="color:#000000;-inkscape-font-specification:'Cascadia Code, @wght=463';fill:#800000;fill-opacity:1;-inkscape-stroke:none"
         d="m 62.856127,115.0485 0.775875,-2.81828 h 0.560144 l 0.775876,2.81828 h -0.423893 l -0.615023,-2.41143 h -0.03406 l -0.615023,2.41143 z m 0.365229,-0.65694 v -0.39893 h 1.362513 v 0.39893 z m 2.460093,-0.40687 v -0.39694 h 0.554467 c 0.14382,0 0.255471,-0.0404 0.33495,-0.12106 0.08074,-0.082 0.121113,-0.19649 0.121113,-0.34336 0,-0.15878 -0.04037,-0.28117 -0.121113,-0.36717 -0.07948,-0.086 -0.19113,-0.12901 -0.33495,-0.12901 h -0.546898 l -0.04542,-0.39693 h 0.592315 c 0.281333,0 0.498326,0.0741 0.650977,0.22228 0.152652,0.1482 0.228978,0.35857 0.228978,0.63113 0,0.2858 -0.07633,0.50743 -0.228978,0.66488 -0.152651,0.15746 -0.369644,0.23618 -0.650977,0.23618 z m -0.374691,1.06381 v -2.81828 h 0.401184 v 2.81828 z m 1.426853,0 -0.584745,-1.32578 h 0.437139 l 0.62827,1.32578 z m 1.51958,0 v -2.81828 h 0.401185 v 2.81828 z m -0.789122,-2.42135 v -0.39693 h 1.979428 v 0.39693 z"
         id="path10" /><path
         style="color:#000000;fill:#800000;fill-opacity:1;-inkscape-stroke:none"
         d="m 61.005005,111.34021 h 8.374126 v 0.53263 h -8.374126 z"
         id="path11" /><path
         style="color:#000000;fill:#800000;fill-opacity:1;-inkscape-stroke:none"
         d="m 61.005005,111.34021 h 8.374126 v 0.53263 h -8.374126 z"
         id="path12" /><path
         style="color:#000000;fill:#800000;fill-opacity:1;-inkscape-stroke:none"
         d="m 53.917439,114.62856 h 8.561215 v 0.39232 h -8.561215 z"
         id="path13" /><path
         style="color:#000000;fill:#800000;fill-opacity:1;-inkscape-stroke:none"
         d="m 53.917439,114.62856 h 8.561215 v 0.39232 h -8.561215 z"
         id="path14" /></g></g></svg>
