<?xml version="1.0" encoding="UTF-8" standalone="no"?>
<!-- Created with Inkscape (http://www.inkscape.org/) -->

<svg
   version="1.1"
   id="svg1"
   width="54.445377"
   height="15.088135"
   viewBox="0 0 54.445375 15.088135"
   sodipodi:docname="logo.svg"
   xml:space="preserve"
   inkscape:version="1.3 (0e150ed6c4, 2023-07-21)"
   xmlns:inkscape="http://www.inkscape.org/namespaces/inkscape"
   xmlns:sodipodi="http://sodipodi.sourceforge.net/DTD/sodipodi-0.dtd"
   xmlns="http://www.w3.org/2000/svg"
   xmlns:svg="http://www.w3.org/2000/svg"><defs
     id="defs1" /><sodipodi:namedview
     id="namedview1"
     pagecolor="#ffffff"
     bordercolor="#000000"
     borderopacity="0.25"
     inkscape:showpageshadow="2"
     inkscape:pageopacity="0.0"
     inkscape:pagecheckerboard="0"
     inkscape:deskcolor="#d1d1d1"
     showguides="true"
     showgrid="false"
     inkscape:zoom="9.7665647"
     inkscape:cx="18.839787"
     inkscape:cy="12.747573"
     inkscape:window-width="1366"
     inkscape:window-height="745"
     inkscape:window-x="-8"
     inkscape:window-y="-8"
     inkscape:window-maximized="1"
     inkscape:current-layer="g1"><inkscape:grid
       id="grid16"
       units="px"
       originx="-129.53693"
       originy="-272.74024"
       spacingx="0.99999996"
       spacingy="0.99999999"
       empcolor="#0099e5"
       empopacity="0.30196078"
       color="#0099e5"
       opacity="0.14901961"
       empspacing="5"
       dotted="false"
       gridanglex="30"
       gridanglez="30"
       visible="false" /></sodipodi:namedview><g
     inkscape:groupmode="layer"
     inkscape:label="Image"
     id="g1"
     transform="translate(-129.53693,-272.74024)"><g
       id="g9"
       transform="translate(12.360656,66.381298)"
       style="fill:#800000"
       inkscape:export-filename="..\OneDrive\Ambiente de Trabalho\Restaurant\assets\image\logo.tiff"
       inkscape:export-xdpi="53.614136"
       inkscape:export-ydpi="53.614136"><g
         id="g16"
         style="fill:#800000"><path
           style="fill:#800000;fill-opacity:1"
           d="m 130.04911,221.38436 c 2.56701,-0.0345 6.76756,-0.0345 9.33457,0 2.56701,0.0345 0.46673,0.0627 -4.66728,0.0627 -5.13402,0 -7.23429,-0.0282 -4.66729,-0.0627 z"
           id="path13"
           sodipodi:nodetypes="ssss" /><path
           style="fill:#800000;fill-opacity:1"
           d="m 146.41967,207.60861 c 0,-0.65883 0.0376,-0.92835 0.0836,-0.59893 0.046,0.32941 0.046,0.86845 0,1.19787 -0.046,0.32942 -0.0836,0.0599 -0.0836,-0.59894 z"
           id="path11"
           sodipodi:nodetypes="ssss" /><path
           style="fill:#800000;fill-opacity:1"
           d="m 121.43577,220.1598 v -1.08897 h 9.2342 9.23419 v 1.08897 1.08898 h -9.23419 -9.2342 z m 21.08029,0.49004 c 10e-4,-0.0898 0.71499,-2.1235 1.58614,-4.51925 l 1.58392,-4.3559 h 0.84724 0.84724 l 1.58148,4.32697 c 0.86981,2.37983 1.58148,4.4135 1.58148,4.51925 0,0.10575 -0.36063,0.19228 -0.80139,0.19228 -0.72933,0 -0.83322,-0.0734 -1.15524,-0.81673 l -0.35383,-0.81674 -1.66654,-0.0634 -1.66654,-0.0635 -0.33994,0.87798 c -0.32104,0.82916 -0.38736,0.87809 -1.1931,0.88018 -0.46923,0.001 -0.85215,-0.0713 -0.85092,-0.16113 z m 5.21709,-3.09112 c 0,-0.39986 -1.05248,-3.27939 -1.19863,-3.27939 -0.20955,0 -1.22722,3.06101 -1.0949,3.2933 0.14725,0.25849 2.29353,0.24548 2.29353,-0.0139 z m 6.82528,-1.31923 v -4.5737 h 1.59606 c 2.28523,0 3.50579,0.33014 4.11244,1.11234 0.99263,1.27988 0.85387,3.40587 -0.28557,4.37531 l -0.5897,0.50172 0.79528,1.48616 c 0.4374,0.81738 0.79527,1.53331 0.79527,1.59094 0,0.0576 -0.42549,0.0749 -0.94553,0.0384 -0.93958,-0.066 -0.95047,-0.0757 -1.72906,-1.54846 -0.73085,-1.38245 -0.82584,-1.47761 -1.41319,-1.41566 l -0.62969,0.0664 -0.0593,1.47012 -0.0594,1.47012 h -0.7938 -0.7938 z m 4.17094,-0.33904 c 0.54133,-0.41137 0.6011,-1.50996 0.11393,-2.09401 -0.24968,-0.29931 -0.6238,-0.39829 -1.50558,-0.39829 h -1.17335 v 1.41567 1.41567 h 1.05943 c 0.63396,0 1.23859,-0.13616 1.50557,-0.33904 z m 8.6313,1.26467 -0.055,-3.64807 -1.25465,-0.0648 -1.25464,-0.0648 v -0.86079 -0.86079 h 3.41264 3.41263 v 0.86079 0.86079 l -1.25464,0.0648 -1.25465,0.0648 -0.055,3.64807 -0.055,3.64807 h -0.79326 -0.79327 z m -30.51186,-9.61721 v -1.08897 l 14.8393,-0.0202 h 9.09336 v 1.08897 1.08898 h -9.13382 l -14.79884,-0.10116 z"
           id="path9"
           sodipodi:nodetypes="cccccccccsscccsssscccscsssssssccssscsssssccccccssscccsscccccccccccccccccccccccccc" /><path
           d="m 134.3898,190.96664 c 0,0.35585 -0.0629,0.68653 -0.1887,0.99205 -0.12221,0.30193 -0.29474,0.56432 -0.51759,0.78717 -0.27677,0.27676 -0.60385,0.48523 -0.98126,0.62542 -0.37741,0.13658 -0.85367,0.20487 -1.42877,0.20487 h -1.06752 v 2.99232 h -1.06753 v -8.02803 h 2.17819 c 0.48165,0 0.88961,0.0413 1.22388,0.12401 0.33427,0.0791 0.63081,0.20488 0.88961,0.37741 0.30552,0.20488 0.54095,0.46008 0.70629,0.7656 0.16893,0.30552 0.2534,0.69191 0.2534,1.15918 z m -1.11066,0.027 c 0,-0.27677 -0.0485,-0.51759 -0.14557,-0.72247 -0.097,-0.20488 -0.24442,-0.37202 -0.44211,-0.50141 -0.17253,-0.11143 -0.37022,-0.1905 -0.59307,-0.23723 -0.21925,-0.0503 -0.49782,-0.0755 -0.83569,-0.0755 h -1.05674 v 3.20797 h 0.90039 c 0.43132,0 0.78177,-0.0377 1.05135,-0.11322 0.26958,-0.0791 0.48884,-0.20308 0.65777,-0.37202 0.16893,-0.17253 0.28755,-0.35404 0.35584,-0.54454 0.0719,-0.19051 0.10783,-0.40437 0.10783,-0.6416 z m 8.50248,-1.5312 c 0.32709,0.35944 0.5769,0.79975 0.74943,1.32093 0.17612,0.52119 0.26418,1.11246 0.26418,1.77382 0,0.66137 -0.0899,1.25444 -0.26957,1.77921 -0.17613,0.52119 -0.42414,0.95611 -0.74404,1.30476 -0.33068,0.36303 -0.72247,0.63621 -1.17536,0.81952 -0.44929,0.18331 -0.96329,0.27496 -1.54198,0.27496 -0.56432,0 -1.07832,-0.0934 -1.54199,-0.28036 -0.46007,-0.18691 -0.85186,-0.45828 -1.17535,-0.81412 -0.32349,-0.35584 -0.5733,-0.79256 -0.74943,-1.31015 -0.17253,-0.51759 -0.25879,-1.10886 -0.25879,-1.77382 0,-0.65417 0.0863,-1.24006 0.25879,-1.75765 0.17253,-0.52118 0.42413,-0.96688 0.75482,-1.3371 0.3163,-0.35225 0.70809,-0.62182 1.17536,-0.80873 0.47086,-0.18691 0.98306,-0.28036 1.53659,-0.28036 0.5751,0 1.09089,0.0953 1.54737,0.28575 0.46008,0.18691 0.85007,0.45469 1.16997,0.80334 z m -0.097,3.09475 c 0,-1.04237 -0.23363,-1.84571 -0.7009,-2.41002 -0.46727,-0.56791 -1.10527,-0.85187 -1.914,-0.85187 -0.81592,0 -1.45751,0.28396 -1.92478,0.85187 -0.46367,0.56431 -0.69551,1.36765 -0.69551,2.41002 0,1.05315 0.23723,1.86009 0.71168,2.42081 0.47446,0.55713 1.11066,0.83569 1.90861,0.83569 0.79795,0 1.43235,-0.27856 1.90322,-0.83569 0.47445,-0.56072 0.71168,-1.36766 0.71168,-2.42081 z m 9.446,4.01132 h -1.38563 l -2.68499,-3.1918 h -1.50424 v 3.1918 h -1.06753 v -8.02803 h 2.24828 c 0.48524,0 0.88961,0.0324 1.2131,0.0971 0.32349,0.0611 0.61464,0.17256 0.87343,0.33428 0.29114,0.18331 0.51758,0.41515 0.67933,0.69551 0.16535,0.27677 0.24802,0.62901 0.24802,1.05674 0,0.57869 -0.14557,1.06393 -0.43672,1.45572 -0.29115,0.38819 -0.69192,0.68114 -1.20232,0.87883 z m -2.49629,-5.76897 c 0,-0.23003 -0.0413,-0.43311 -0.124,-0.60924 -0.0791,-0.17972 -0.21207,-0.33068 -0.39898,-0.45289 -0.15455,-0.10424 -0.33786,-0.17613 -0.54993,-0.21566 -0.21207,-0.0431 -0.46188,-0.0647 -0.74943,-0.0647 h -1.25623 v 3.03005 h 1.07831 c 0.33787,0 0.6326,-0.0288 0.88421,-0.0863 0.25161,-0.0611 0.46547,-0.17256 0.6416,-0.33428 0.16175,-0.15097 0.28036,-0.3235 0.35584,-0.51759 0.0791,-0.19769 0.11861,-0.4475 0.11861,-0.74943 z m 9.02268,-1.54965 -2.95718,0.23951 v 7.07911 h -1.06753 v -7.07911 h -2.8683 v -0.94892 h 6.80414 z"
           id="text16"
           style="font-size:11.0419px;fill:#800000;stroke:#800000;stroke-width:0.920155;fill-opacity:1"
           transform="scale(0.91061373,1.0981605)"
           aria-label="PORT"
           sodipodi:nodetypes="scscsccccscccsssccsccscccssccscccscscscccsccscscscscscccccccscccscccccccsccscccccccccccccc" /></g></g></g></svg>
